Coordinates
version=1
nRows=17
nColumns=24
inDegrees=yes

Units are S.I. units (second, meters, Newtons, ...)
Angles are in degrees.

endheader
time	pelvis_tilt	pelvis_list	pelvis_rotation	pelvis_tx	pelvis_ty	pelvis_tz	hip_flexion_r	hip_adduction_r	hip_rotation_r	knee_angle_r	ankle_angle_r	subtalar_angle_r	mtp_angle_r	hip_flexion_l	hip_adduction_l	hip_rotation_l	knee_angle_l	ankle_angle_l	subtalar_angle_l	mtp_angle_l	lumbar_extension	lumbar_bending	lumbar_rotation
      1.76650000	     -0.89968736	      5.51274000	     -0.27423394	      1.43743127	      1.02106273	      0.24211815	     16.14545493	     -4.66160664	     -0.58291150	    -66.90463490	      4.79069466	    -17.03153148	      1.61326494	      4.66886800	     10.38045043	      1.86205179	     -8.01025013	      2.48632690	    -13.42713149	      2.72976487	      0.08221664	     -6.93665555	      2.78603491
      1.77066667	     -0.90495910	      5.41006390	      0.02523721	      1.44216100	      1.02150860	      0.24134489	     16.59845897	     -4.53294799	     -0.71289226	    -66.48423904	      4.89961823	    -17.17393852	      1.53501154	      4.20501693	     10.31010305	      2.17595673	     -7.72132781	      2.58470070	    -13.34558836	      2.68452063	      0.05403525	     -6.82041644	      2.57137057
      1.77483333	     -0.93667723	      5.31355506	      0.30760187	      1.44688282	      1.02187918	      0.24061266	     17.08134403	     -4.40616412	     -0.81309391	    -66.04419039	      5.00578552	    -17.32740371	      1.45472241	      3.77095183	     10.23930257	      2.46519145	     -7.42918937	      2.65059724	    -13.27064965	      2.64140427	      0.05195453	     -6.71316253	      2.32798077
      1.77900000	     -0.96646337	      5.21861578	      0.60992669	      1.45159602	      1.02222685	      0.23987904	     17.54804734	     -4.29071845	     -0.92946991	    -65.57404339	      5.12353258	    -17.44847928	      1.40253014	      3.34573801	     10.16438234	      2.75416155	     -7.15364596	      2.70139575	    -13.15852568	      2.61505299	      0.04126072	     -6.62393269	      2.14230317
      1.78316667	     -0.97778195	      5.12858504	      0.89740416	      1.45628220	      1.02255560	      0.23914459	     17.99306476	     -4.19157426	     -1.04507063	    -65.07792199	      5.19669434	    -17.60085338	      1.31171740	      2.89060271	     10.09466120	      3.06858023	     -6.85462616	      2.77575145	    -13.12655060	      2.57098562	      0.02707575	     -6.51753292	      1.79826285
      1.78733333	     -1.02022052	      5.03053312	      1.18151831	      1.46097552	      1.02282661	      0.23845365	     18.45966261	     -4.07859264	     -1.14240289	    -64.54629090	      5.31864232	    -17.69633092	      1.24651286	      2.48700853	     10.00769923	      3.35048796	     -6.58625393	      2.82502689	    -13.03825969	      2.54047693	      0.03424447	     -6.42880143	      1.62304668
      1.79150000	     -1.03914739	      4.94397346	      1.46694737	      1.46566107	      1.02309316	      0.23774622	     18.89371822	     -3.99034927	     -1.24724717	    -63.99301602	      5.39693797	    -17.80982503	      1.15415711	      2.04599609	      9.93164223	      3.64735976	     -6.29201620	      2.89083322	    -13.00057994	      2.50003290	      0.02393895	     -6.33019639	      1.32452284
      1.79566667	     -1.05017708	      4.86681118	      1.75676227	      1.47032318	      1.02333035	      0.23704782	     19.31370771	     -3.91950397	     -1.35464010	    -63.42131707	      5.50679991	    -17.88327031	      1.05944583	      1.60840536	      9.86103322	      3.94912811	     -6.01536512	      2.94991252	    -12.94148622	      2.45849147	      0.00123560	     -6.24773140	      1.07668562
      1.79983333	     -1.08677294	      4.77969883	      2.03599298	      1.47500517	      1.02350941	      0.23638122	     19.75100034	     -3.83594606	     -1.44550962	    -62.81570097	      5.59048908	    -17.96606179	      0.96475999	      1.20423349	      9.77499812	      4.22901615	     -5.75241053	      3.01014709	    -12.88660737	      2.41988179	      0.01062032	     -6.16069113	      0.84370008
      1.80400000	     -1.09799094	      4.70575631	      2.32362871	      1.47964243	      1.02370008	      0.23572063	     20.15133658	     -3.77363812	     -1.54263226	    -62.18516340	      5.68791450	    -18.03001947	      0.84924364	      0.77114245	      9.69756665	      4.53345630	     -5.47551079	      3.03325922	    -12.84408209	      2.37142477	     -0.02782532	     -6.08879996	      0.59303272
      1.80816667	     -1.14511888	      4.61836284	      2.61234980	      1.48427960	      1.02380543	      0.23506739	     20.58151630	     -3.70537026	     -1.64538456	    -61.52508683	      5.79261324	    -18.05219752	      0.80358961	      0.40030422	      9.60165998	      4.77874911	     -5.25020937	      3.10799693	    -12.73390586	      2.35540081	     -0.00311575	     -6.00533938	      0.48235242
      1.81233333	     -1.16247987	      4.55740949	      2.87622616	      1.48891394	      1.02390477	      0.23445537	     20.97889548	     -3.65858588	     -1.71359823	    -60.85539206	      5.85042619	    -18.10771671	      0.69297976	     -0.02903432	      9.53174364	      5.08054650	     -4.96588782	      3.15234897	    -12.73741055	      2.31413300	     -0.02341218	     -5.94722326	      0.15406145
      1.81650000	     -1.21467065	      4.48169461	      3.17046534	      1.49357129	      1.02394117	      0.23382385	     21.38947195	     -3.61075840	     -1.80860672	    -60.15005015	      5.94368789	    -18.10606928	      0.65022992	     -0.39089392	      9.44012501	      5.33645881	     -4.74154526	      3.21743677	    -12.63466339	      2.29973059	      0.00045108	     -5.88037948	      0.05051431
      1.82066667	     -1.23225918	      4.41615680	      3.43029146	      1.49819416	      1.02399161	      0.23323552	     21.76529747	     -3.56651140	     -1.87317923	    -59.42059304	      5.99811475	    -18.13126054	      0.55048323	     -0.81017898	      9.35741200	      5.63514586	     -4.47235811	      3.27184161	    -12.64537425	      2.26348330	     -0.01969822	     -5.81738648	     -0.27047291
      1.82483333	     -1.26435867	      4.34287288	      3.72139885	      1.50280977	      1.02401126	      0.23263078	     22.13397073	     -3.52877953	     -1.96688943	    -58.65650640	      6.07963831	    -18.10988901	      0.51145427	     -1.19152193	      9.25844233	      5.88850987	     -4.24756087	      3.32768310	    -12.54200610	      2.25164445	     -0.01651634	     -5.75028609	     -0.37053999
      1.82900000	     -1.27182873	      4.28999843	      3.97672577	      1.50742483	      1.02401840	      0.23207431	     22.47519286	     -3.50349427	     -2.02275877	    -57.87854201	      6.12306901	    -18.10710368	      0.42420921	     -1.62028186	      9.17979620	      6.18333581	     -3.97438459	      3.38864090	    -12.55791204	      2.22271767	     -0.05167157	     -5.70450138	     -0.67243915
      1.83316667	     -1.30908490	      4.22842774	      4.25659759	      1.51207314	      1.02397500	      0.23150542	     22.82811044	     -3.48370677	     -2.10414127	    -57.06461931	      6.18641155	    -18.06412146	      0.39004320	     -1.99411704	      9.08600057	      6.42653619	     -3.75454507	      3.44424159	    -12.45157345	      2.21171557	     -0.04467576	     -5.65383402	     -0.76072584
